# xmcd
#
# Track frame offsets:
#	150
#	10588
#	21974
#	44765
#	54383
#	65406
#	73166
#	80443
#	98933
#	130596
#	142783
#	169970
#	238397
#	242720
#	250781
#	265097
#	277130
#	290302
#	321383
#	329023
#
# Disc length: 4669 seconds
# Revision: 0
# Processed by: cddbd v1.5.2PL0 Copyright (c) Steve Scherf et al.
# Submitted via: dBpowerAMP V12.0
#
DISCID=2e123b14
DTITLE=Various / Disneyland (The Legacy Collection)
DYEAR=2015
DGENRE=Theme Parks
TTITLE0=Mattterhorn Bobsleds / Matterhorn Yodelers
TTITLE1=It's a Small World / It's a Small World Clock Parade
TTITLE2=It's a Small World / It's a Small World
TTITLE3=Mickey's Toontown / Steamboat Willie
TTITLE4=Roger Rabbit's Car Toon Spin / Roger Rabbit's Car Toon Spin
TTITLE5=Peoplemover / Nation on Wheels
TTITLE6=Adventures Thru Inner Space / Miracles from Molecules
TTITLE7=Star Tours / Star Tours
TTITLE8=The Carousel of Progress / There's a Great Big Beautiful Tomorrow
TTITLE9=Space Mountain / Space Mountain
TTITLE10=Buzz Lightyear's Astro-Blasters / Buzz Lightyear's Astro-Blasters
TTITLE11=Finding Nemo Submarine Voyage / Submarine Voyage
TTITLE12=Star Tours - The Adventure Continues / The Throne Room
TTITLE13=Honey, I Shrunk the Audience / Honey, I Shrunk the Audience Theme
TTITLE14=Space Mountain / Space Mountain (revised)
TTITLE15=Buena Vista Street / Suitcase and a Dream
TTITLE16=Carthay Circle / Who's Afraid of the Big Bad Wolf
TTITLE17=Monsters Inc., Mike and Sulley to the Rescue / Mike and Sulley to the Rescue
TTITLE18=Twilight Zone Tower of Terror / Twilight Zone Tower of Terror Theme
TTITLE19=Soarin' Over California / Soarin'
EXTD=
EXTT0=
EXTT1=
EXTT2=
EXTT3=
EXTT4=
EXTT5=
EXTT6=
EXTT7=
EXTT8=
EXTT9=
EXTT10=
EXTT11=
EXTT12=
EXTT13=
EXTT14=
EXTT15=
EXTT16=
EXTT17=
EXTT18=
EXTT19=
PLAYORDER=
